<svg width="32" height="33" viewBox="0 0 32 33" fill="none" xmlns="http://www.w3.org/2000/svg">
<path d="M32 16.6633C32 7.82583 24.8375 0.66333 16 0.66333C7.1625 0.66333 0 7.82583 0 16.6633C0 24.6508 5.85 31.2696 13.5 32.4696V21.2883H9.4375V16.6633H13.5V13.1383C13.5 9.12896 15.8875 6.91333 19.5438 6.91333C21.2938 6.91333 23.125 7.22583 23.125 7.22583V11.1633H21.1063C19.1188 11.1633 18.5 12.3977 18.5 13.6633V16.6633H22.9375L22.2281 21.2883H18.5V32.4696C26.15 31.2696 32 24.6508 32 16.6633Z" fill="#1877F2"/>
<path d="M22.2281 21.2883L22.9375 16.6633H18.5V13.6633C18.5 12.3977 19.1188 11.1633 21.1063 11.1633H23.125V7.22583C23.125 7.22583 21.2938 6.91333 19.5438 6.91333C15.8875 6.91333 13.5 9.12896 13.5 13.1383V16.6633H9.4375V21.2883H13.5V32.4696C14.3156 32.5977 15.15 32.6633 16 32.6633C16.85 32.6633 17.6844 32.5977 18.5 32.4696V21.2883H22.2281Z" fill="white"/>
</svg>
