<svg width="32" height="33" viewBox="0 0 32 33" fill="none" xmlns="http://www.w3.org/2000/svg">
<path fill-rule="evenodd" clip-rule="evenodd" d="M0 16.6633C0 7.82677 7.16344 0.66333 16 0.66333C24.8366 0.66333 32 7.82677 32 16.6633C32 25.4999 24.8366 32.6633 16 32.6633C7.16344 32.6633 0 25.4999 0 16.6633Z" fill="#0077B5"/>
<path d="M11.5459 10.5451C11.5223 9.47693 10.7584 8.66333 9.51803 8.66333C8.27761 8.66333 7.46667 9.47693 7.46667 10.5451C7.46667 11.5912 8.25365 12.4282 9.47096 12.4282H9.49413C10.7584 12.4282 11.5459 11.5912 11.5459 10.5451Z" fill="white"/>
<path d="M11.307 13.9153H7.68109V24.8098H11.307V13.9153Z" fill="white"/>
<path d="M20.2088 13.6594C22.5948 13.6594 24.3836 15.2169 24.3836 18.5632L24.3835 24.8097H20.7577V18.9812C20.7577 17.5172 20.233 16.5182 18.9204 16.5182C17.9186 16.5182 17.3219 17.1916 17.0599 17.8421C16.964 18.0752 16.9405 18.4 16.9405 18.7256V24.81H13.3141C13.3141 24.81 13.3619 14.9378 13.3141 13.9155H16.9405V15.4586C17.4217 14.7168 18.2836 13.6594 20.2088 13.6594Z" fill="white"/>
</svg>
