<svg width="32" height="33" viewBox="0 0 32 33" fill="none" xmlns="http://www.w3.org/2000/svg">
<g clip-path="url(#clip0_624_5065)">
<rect y="0.66333" width="32" height="32" rx="16" fill="white"/>
<path d="M10.9652 13.5062C10.9735 13.4251 10.9624 13.3431 10.9327 13.267C10.903 13.1908 10.8556 13.1225 10.7943 13.0676L9.52736 11.5562V11.3301H13.4598L16.4996 17.9338L19.1719 11.3301H22.9212V11.5562L21.838 12.5835C21.7921 12.6184 21.7567 12.6648 21.7356 12.7179C21.7144 12.7709 21.7083 12.8287 21.718 12.8849V20.4412C21.7083 20.4975 21.7144 20.5552 21.7356 20.6082C21.7567 20.6613 21.7921 20.7078 21.838 20.7426L22.8961 21.7706V21.9973H17.576V21.7713L18.672 20.7179C18.7799 20.6113 18.7799 20.5799 18.7799 20.4172V14.3089L15.7332 21.972H15.3222L11.775 14.3089V19.4452C11.7459 19.6605 11.8184 19.8785 11.9717 20.0346L13.3967 21.7466V21.972H9.35645V21.7466L10.7807 20.0346C10.8561 19.9573 10.912 19.8637 10.9441 19.7614C10.9761 19.659 10.9833 19.5508 10.9652 19.4452V13.5062Z" fill="black"/>
</g>
<defs>
<clipPath id="clip0_624_5065">
<rect width="32" height="32" fill="white" transform="translate(0 0.66333)"/>
</clipPath>
</defs>
</svg>
