<svg width="32" height="33" viewBox="0 0 32 33" fill="none" xmlns="http://www.w3.org/2000/svg">
<path fill-rule="evenodd" clip-rule="evenodd" d="M0 16.6633C0 7.82677 7.16344 0.66333 16 0.66333C24.8366 0.66333 32 7.82677 32 16.6633C32 25.4999 24.8366 32.6633 16 32.6633C7.16344 32.6633 0 25.4999 0 16.6633Z" fill="#FF0000"/>
<path fill-rule="evenodd" clip-rule="evenodd" d="M22.6677 11.1629C23.4021 11.3644 23.9804 11.9582 24.1767 12.7122C24.5333 14.0787 24.5333 16.93 24.5333 16.93C24.5333 16.93 24.5333 19.7812 24.1767 21.1479C23.9804 21.9019 23.4021 22.4956 22.6677 22.6972C21.3369 23.0634 16 23.0634 16 23.0634C16 23.0634 10.6631 23.0634 9.33218 22.6972C8.59783 22.4956 8.0195 21.9019 7.82323 21.1479C7.46667 19.7812 7.46667 16.93 7.46667 16.93C7.46667 16.93 7.46667 14.0787 7.82323 12.7122C8.0195 11.9582 8.59783 11.3644 9.33218 11.1629C10.6631 10.7967 16 10.7967 16 10.7967C16 10.7967 21.3369 10.7967 22.6677 11.1629ZM14.4 14.53V19.8633L18.6667 17.1967L14.4 14.53Z" fill="white"/>
</svg>
