<svg width="44" height="45" viewBox="0 0 44 45" fill="none" xmlns="http://www.w3.org/2000/svg">
<rect y="0.5" width="44" height="44" rx="22" fill="white"/>
<path d="M25.5411 12.9402C25.8349 13.2222 26 13.6046 26 14.0033C26 14.402 25.8349 14.7843 25.5411 15.0663L17.7831 22.5091L25.5411 29.9518C25.8266 30.2354 25.9846 30.6152 25.981 31.0095C25.9774 31.4037 25.8126 31.7808 25.522 32.0596C25.2314 32.3384 24.8383 32.4965 24.4274 32.4999C24.0165 32.5034 23.6206 32.3518 23.325 32.0779L14.4589 23.5721C14.1651 23.2902 14 22.9078 14 22.5091C14 22.1104 14.1651 21.728 14.4589 21.446L23.325 12.9402C23.6189 12.6584 24.0175 12.5 24.4331 12.5C24.8486 12.5 25.2472 12.6584 25.5411 12.9402Z" fill="black"/>
</svg>
