<svg width="15" height="17" viewBox="0 0 15 17" fill="none" xmlns="http://www.w3.org/2000/svg">
<path d="M8.70583 15.4209C8.84382 15.3532 8.96012 15.2482 9.04156 15.1179C9.12301 14.9876 9.16634 14.837 9.16667 14.6834V10.25C9.16667 10.0317 9.25417 9.82168 9.41083 9.66668L14.5117 4.62168C14.6662 4.46917 14.7889 4.28752 14.8727 4.08726C14.9565 3.887 14.9998 3.67211 15 3.45502V1.32502C14.9996 1.2161 14.9776 1.10833 14.9355 1.00789C14.8934 0.907452 14.8318 0.816308 14.7544 0.739677C14.677 0.663047 14.5853 0.602435 14.4844 0.56131C14.3836 0.520186 14.2756 0.499357 14.1667 0.500015H0.833333C0.3725 0.500015 0 0.868349 0 1.32502V3.45502C0 3.89252 0.175833 4.31252 0.488333 4.62168L5.58917 9.66668C5.66645 9.74291 5.72783 9.83373 5.76974 9.93387C5.81166 10.034 5.83327 10.1415 5.83333 10.25V15.5084C5.83333 16.1209 6.485 16.5192 7.03917 16.245L8.70583 15.4209Z" fill="black"/>
</svg>
