<svg width="64" height="44" viewBox="0 0 64 44" fill="none" xmlns="http://www.w3.org/2000/svg">
<path d="M45.8733 0H20.8826C20.3587 0 19.8398 0.103016 19.3557 0.303166C18.8716 0.503317 18.4318 0.796679 18.0613 1.16651C17.6908 1.53634 17.3969 1.97539 17.1964 2.4586C16.9959 2.9418 16.8927 3.4597 16.8927 3.98272V5.29056C16.8927 5.33347 16.8927 5.37637 16.8927 5.4178C16.8927 5.74476 16.8808 6.08947 16.8808 6.15753C16.8912 8.95371 15.6284 9.32062 14.4619 10.1669C14.5434 10.1758 16.8482 9.3295 18.3511 9.29991C20.232 9.2644 20.4958 9.26884 20.8811 9.26884H45.8733C46.9315 9.26884 47.9464 8.84923 48.6947 8.10233C49.4429 7.35543 49.8633 6.34241 49.8633 5.28613V3.97828C49.8621 2.92277 49.4412 1.91089 48.6931 1.16494C47.945 0.418998 46.9308 -6.55429e-07 45.8733 0Z" fill="#F5C614"/>
<path d="M14.7884 15.7323C14.8343 15.7146 14.8788 15.6953 14.9262 15.682L15.0641 15.6391L15.0981 15.6288L15.1322 15.6214L15.2004 15.6051C15.3737 15.5622 15.5511 15.5374 15.7295 15.5311C15.8962 15.524 16.0632 15.5349 16.2275 15.5637C16.3887 15.5908 16.547 15.6329 16.7004 15.6894C17.0167 15.8079 17.3158 15.9681 17.5897 16.1658C17.732 16.2667 17.8691 16.3748 18.0002 16.4898C18.0654 16.546 18.1292 16.6052 18.1899 16.6629C18.2211 16.6925 18.2507 16.7206 18.2774 16.7487L18.3159 16.7887L18.3322 16.8064L20.1212 14.9674L20.0989 14.9467L20.0826 14.9423L20.0574 14.9201L20.01 14.8816C19.9804 14.858 19.9507 14.8328 19.9226 14.8121C19.8633 14.7677 19.8055 14.7263 19.7477 14.6863C19.6335 14.605 19.515 14.5384 19.3979 14.4615C19.1598 14.3229 18.9121 14.2012 18.6568 14.0975C18.3977 13.9912 18.1306 13.9056 17.8579 13.8416C17.5791 13.776 17.2948 13.7359 17.0086 13.7217C16.4298 13.6925 15.8518 13.7936 15.3175 14.0176C15.2508 14.0428 15.1886 14.0753 15.1248 14.1049L15.0314 14.1523L14.9855 14.1759L14.941 14.2026L14.7632 14.3106C14.7338 14.3274 14.7056 14.3462 14.6787 14.3668L14.5957 14.426C14.4876 14.5042 14.3842 14.5887 14.2859 14.6789C14.1866 14.7662 14.1006 14.8639 14.0117 14.9556L14.6476 15.7945L14.7884 15.7323Z" fill="white"/>
<path d="M40.7166 15.6739C40.9163 15.7007 41.1143 15.7392 41.3094 15.7893L41.4488 15.8307C41.4724 15.8363 41.4956 15.8432 41.5184 15.8514L41.5866 15.8751C41.677 15.9032 41.7659 15.9417 41.8534 15.9757C42.2045 16.1273 42.5383 16.3157 42.8494 16.5379C43.008 16.6489 43.1621 16.7672 43.3118 16.89C43.3874 16.9522 43.46 17.0143 43.5312 17.0764L43.6349 17.1667L43.6839 17.2081L43.7046 17.2259H43.712C43.712 17.2259 43.712 17.2259 43.712 17.2185L45.4995 15.7316L45.4461 15.6635L45.4046 15.6132L45.3246 15.52L45.2446 15.4342C45.2179 15.4046 45.1912 15.378 45.1645 15.3514C45.0578 15.244 44.9455 15.1422 44.8281 15.0466C44.5962 14.8556 44.3482 14.6848 44.087 14.5362C43.5542 14.2341 42.9713 14.0301 42.3662 13.934C42.218 13.9148 42.0609 13.8956 41.9067 13.8882H41.7926H41.677C41.5999 13.8882 41.5288 13.8882 41.4473 13.8882C41.2948 13.8962 41.1429 13.9125 40.9923 13.937C40.8426 13.9599 40.6941 13.9905 40.5476 14.0287C39.9879 14.1787 39.4675 14.4483 39.0225 14.8188L39.4004 15.6621C39.8385 15.6234 40.2793 15.6274 40.7166 15.6739Z" fill="white"/>
<path d="M9.39319 16.4217C9.43172 16.5312 9.46581 16.6421 9.49546 16.7516C9.51176 16.8078 9.5251 16.8626 9.53696 16.9158L9.55474 16.9942L9.56215 17.0312V17.046L11.7068 16.7501L11.6935 16.6643L11.6831 16.5962C11.6757 16.5519 11.6683 16.509 11.6594 16.4675C11.6431 16.3832 11.6253 16.3004 11.6075 16.219C11.569 16.0562 11.526 15.8965 11.4771 15.7367C11.378 15.4132 11.2547 15.0977 11.108 14.7928C10.9541 14.4737 10.7699 14.17 10.5582 13.8859C10.3313 13.5825 10.0669 13.3091 9.77114 13.0722C9.46101 12.8253 9.11585 12.6259 8.74697 12.4804C8.38152 12.3376 7.99789 12.2465 7.60718 12.2096C7.41949 12.1922 7.23093 12.1858 7.04248 12.1904C6.85243 12.195 6.66285 12.2113 6.47481 12.2392C6.09265 12.295 5.71944 12.4005 5.36468 12.5529C5.18916 12.6283 5.0184 12.7142 4.85333 12.8103C4.69164 12.9052 4.53529 13.009 4.38497 13.121C4.09723 13.3374 3.83072 13.5807 3.58905 13.8474C3.14316 14.3467 2.76037 14.8987 2.44927 15.4911C2.1609 16.0461 1.91178 16.6205 1.70374 17.2102C1.49476 17.7872 1.32135 18.3657 1.17165 18.9442C0.88075 20.0878 0.655588 21.2471 0.497264 22.4165C0.335709 23.5734 0.223064 24.7289 0.144509 25.8828C0.065955 27.0368 0.0229735 28.1908 0.00666972 29.3433C-0.00222324 29.9188 -0.00222324 30.4958 0.00666972 31.0728C0.00666972 31.3687 0.0140792 31.6498 0.02149 31.9398L0.0348311 32.3762L0.0422401 32.5966L0.0526163 32.826L3.16515 32.6144L3.15033 32.4221L3.13551 32.2194L3.11031 31.8111C3.09253 31.5374 3.07919 31.2622 3.06585 30.987C3.04114 30.4366 3.02287 29.8858 3.01101 29.3344C2.98878 28.2308 2.99174 27.1286 3.02731 26.0293C3.04213 25.5722 3.06436 25.115 3.09104 24.6578C3.20517 24.6223 3.32226 24.5883 3.44083 24.5572C3.86673 24.451 4.29961 24.3748 4.73624 24.3294C5.19308 24.2805 5.65223 24.2563 6.11169 24.2569C6.34438 24.2569 6.57708 24.2569 6.80978 24.2717C6.92539 24.2717 7.041 24.2821 7.15661 24.2909L7.32706 24.3043L7.41006 24.3117H7.44859H7.48416L7.92881 22.2197L7.7139 22.1635L7.51529 22.1132L7.11955 22.0244C6.85573 21.9697 6.59042 21.9194 6.32511 21.8765C5.78527 21.7873 5.24103 21.727 4.69474 21.696C4.25549 21.6698 3.81514 21.6673 3.37562 21.6886C3.47344 20.9681 3.59498 20.2564 3.74912 19.5611C3.86473 19.0433 3.99813 18.5358 4.15672 18.0446C4.30853 17.5656 4.49426 17.0979 4.71253 16.6451C4.91169 16.2286 5.16052 15.8377 5.45361 15.4807C5.70014 15.1762 6.00886 14.9275 6.35921 14.7514C6.43908 14.7121 6.52183 14.679 6.60673 14.6522C6.62802 14.644 6.6498 14.6371 6.67194 14.6315L6.73567 14.6138C6.78014 14.6049 6.82312 14.5916 6.86907 14.5857C6.96006 14.5676 7.05216 14.5558 7.14475 14.5502C7.23855 14.545 7.33256 14.545 7.42636 14.5502C7.76807 14.5653 8.09764 14.6811 8.37346 14.883C8.68801 15.1272 8.94377 15.4386 9.12195 15.7944C9.22806 15.9964 9.31873 16.2061 9.39319 16.4217Z" fill="white"/>
<path d="M16.2744 26.9075C16.4554 26.7976 16.6301 26.6775 16.7976 26.548C17.3459 26.1254 17.8203 25.615 18.2012 25.0374C18.3895 24.7551 18.5551 24.4583 18.6962 24.1498C18.8386 23.8393 18.9551 23.5177 19.0445 23.1881C19.1353 22.854 19.1954 22.5123 19.2239 22.1673C19.2526 21.8117 19.2422 21.454 19.1928 21.1006C19.1673 20.9188 19.1297 20.7389 19.0801 20.5621C19.03 20.3818 18.9671 20.2053 18.8919 20.0339C18.5824 19.3262 18.0556 18.7351 17.3875 18.3458C17.0709 18.1622 16.7329 18.0181 16.3811 17.9168C16.0465 17.8206 15.7036 17.7557 15.3569 17.723C15.188 17.7052 15.0205 17.6949 14.8545 17.6904C14.77 17.6904 14.687 17.6904 14.6055 17.6904H14.4676L14.3194 17.6978C13.9296 17.7264 13.5469 17.8168 13.1856 17.9656C12.8291 18.1133 12.4965 18.3127 12.1985 18.5574C11.918 18.7904 11.6644 19.0539 11.4425 19.343C11.233 19.6147 11.0447 19.902 10.8793 20.2026C10.7194 20.4901 10.5759 20.7865 10.4495 21.0902C10.323 21.3861 10.2104 21.6855 10.1116 21.9883C9.73752 23.1667 9.46529 24.3749 9.29787 25.5996C9.12001 26.8024 9.01329 28.0038 8.93622 29.2066C8.91843 29.5025 8.90213 29.8072 8.89027 30.1076C8.87841 30.4079 8.86507 30.7097 8.85618 31.01C8.84729 31.3104 8.84284 31.6137 8.83691 31.917C8.83691 32.0649 8.83691 32.2202 8.83691 32.3726V32.8446L11.9346 32.5857C11.9323 32.5734 11.9309 32.5611 11.9302 32.5487L11.9213 32.4999L11.9065 32.3978C11.8961 32.3297 11.8872 32.2617 11.8783 32.1921L11.8249 31.7749C11.7909 31.4938 11.7642 31.2127 11.7375 30.9316C11.6841 30.3665 11.6486 29.8013 11.6234 29.2347C11.5668 28.1083 11.5732 26.9797 11.6426 25.8541C11.6782 25.2949 11.7316 24.7401 11.8101 24.1942C11.8487 23.9219 11.8941 23.6517 11.9465 23.3834C11.9989 23.1151 12.0586 22.8518 12.1258 22.5934C12.2529 22.0896 12.4281 21.5991 12.649 21.1287C12.8392 20.7077 13.1072 20.3262 13.439 20.0043C13.5851 19.8689 13.7504 19.7557 13.9296 19.6685C14.1061 19.5863 14.2949 19.5334 14.4884 19.5116L14.564 19.5042H14.6025H14.6455C14.7092 19.5042 14.7715 19.5042 14.8352 19.5042C14.9612 19.5042 15.0842 19.5043 15.2072 19.5131C15.4439 19.5263 15.6787 19.5625 15.9083 19.6211C16.1209 19.6735 16.3258 19.7536 16.5175 19.8593C16.695 19.9575 16.856 20.0828 16.9947 20.2307C17.1313 20.3786 17.2425 20.5481 17.3238 20.7322C17.4091 20.9279 17.4665 21.1346 17.4942 21.3462C17.5489 21.8087 17.5054 22.2774 17.3667 22.7221C17.2959 22.9541 17.2057 23.1798 17.097 23.3967C16.9865 23.6138 16.8586 23.8216 16.7146 24.0181C16.4306 24.4051 16.0792 24.7378 15.6771 25.0005C15.2941 25.2498 14.8628 25.4156 14.4113 25.4872C14.2547 25.5108 14.1062 25.5717 13.9782 25.6648C13.8502 25.7578 13.7466 25.8803 13.6761 26.0218C13.6055 26.1633 13.5702 26.3197 13.5731 26.4778C13.5759 26.6358 13.6169 26.7908 13.6925 26.9297L13.771 27.0776L17.0496 33.1257L19.6789 31.442L16.2744 26.9075Z" fill="white"/>
<path d="M21.9119 30.3025L21.9386 31.4224L21.9727 32.5483L25.0852 32.3485L24.9874 31.2523L24.8955 30.1486C24.8362 29.4138 24.7799 28.678 24.7265 27.9412C24.6213 26.4692 24.5279 24.9971 24.4553 23.5265C24.3827 22.0559 24.3278 20.5868 24.319 19.1295C24.319 18.7493 24.319 18.3691 24.319 17.9918C24.4227 18.1723 24.5279 18.3528 24.6332 18.5318L25.1164 19.3559L25.604 20.177C25.9271 20.7259 26.2561 21.2718 26.5822 21.8177C26.9083 22.3637 27.2418 22.9081 27.5708 23.4451C27.7353 23.7188 27.9043 23.9896 28.0703 24.2603C28.2363 24.5311 28.4023 24.8048 28.5713 25.074L29.0767 25.8863L29.5865 26.694C29.9274 27.2326 30.2698 27.7711 30.6241 28.3037L30.6759 28.3806C30.7732 28.5269 30.9159 28.6374 31.0821 28.6949C31.2483 28.7525 31.4288 28.754 31.5959 28.6992C31.763 28.6444 31.9076 28.5364 32.0072 28.3917C32.1069 28.247 32.1563 28.0737 32.1477 27.8983L32.1774 27.4737L32.21 27.0447C32.2322 26.7591 32.2574 26.4721 32.2826 26.1866C32.335 25.6135 32.3933 25.0425 32.4575 24.4734C32.5864 23.3342 32.7391 22.1994 32.9303 21.081C33.0252 20.5232 33.1304 19.9684 33.249 19.4225C33.3675 18.8766 33.498 18.338 33.6506 17.8202C33.7899 17.3245 33.9648 16.8395 34.1738 16.3689C34.2615 16.1726 34.3656 15.984 34.4851 15.8052C34.5295 15.7415 34.5791 15.6817 34.6333 15.6262C34.6496 15.6102 34.6669 15.5954 34.6852 15.5818C34.7 15.5729 34.7089 15.5714 34.7089 15.5744L32.745 13.1851C32.5477 13.3554 32.372 13.5492 32.2218 13.762C32.0961 13.9356 31.9831 14.1181 31.8839 14.308C31.7158 14.6337 31.5736 14.972 31.4585 15.3199C31.2591 15.936 31.1036 16.5653 30.9931 17.2033C30.882 17.8158 30.8004 18.4194 30.7352 19.0201C30.67 19.6207 30.6211 20.2155 30.587 20.8102C30.5114 21.9938 30.4773 23.1774 30.4684 24.3609C30.4684 24.4142 30.4684 24.466 30.4684 24.5192L30.2431 24.105C30.0949 23.8254 29.9363 23.5457 29.7822 23.2661C29.6281 22.9865 29.4739 22.7069 29.3183 22.4287C29.0055 21.871 28.6958 21.3118 28.3801 20.757C28.0644 20.2022 27.7516 19.6444 27.433 19.0911L26.9557 18.2611L26.477 17.4311C26.1568 16.8798 25.8342 16.3289 25.5091 15.7786L25.02 14.9545C24.937 14.8169 24.8585 14.6808 24.7725 14.5432L24.4998 14.129C24.4002 13.9615 24.2548 13.8257 24.0808 13.7376C23.9068 13.6494 23.7113 13.6125 23.517 13.6311C23.3228 13.6497 23.1378 13.7231 22.9838 13.8427C22.8297 13.9623 22.713 14.1231 22.6471 14.3065L22.6382 14.3287L22.5745 14.5092C22.5552 14.5684 22.5389 14.6231 22.5211 14.6808C22.5033 14.7385 22.4915 14.7903 22.4766 14.845L22.4544 14.9264L22.4366 15.0048L22.3996 15.1616L22.3684 15.3096C22.3477 15.4131 22.3314 15.5108 22.3136 15.6055C22.2454 16.0049 22.1965 16.3925 22.155 16.7772C22.072 17.5465 22.0216 18.304 21.9801 19.06C21.9016 20.5691 21.8704 22.0678 21.8571 23.5665C21.8437 25.0652 21.8571 26.5565 21.8704 28.0507C21.8813 28.8052 21.8951 29.5558 21.9119 30.3025Z" fill="white"/>
<path d="M37.7212 29.9337L38.1436 19.1499H38.1673C38.467 19.1969 38.7638 19.2601 39.0566 19.3393C39.6311 19.4906 40.1839 19.7143 40.7018 20.005C41.201 20.2831 41.6515 20.6404 42.0358 21.0628C42.4097 21.4783 42.7076 21.956 42.9162 22.4742C43.1281 23.0077 43.2629 23.5687 43.3164 24.1401C43.3711 24.7358 43.3667 25.3355 43.303 25.9303C43.2882 26.0782 43.2689 26.2262 43.2482 26.3845C43.2363 26.4599 43.2259 26.5324 43.2141 26.6123L43.1948 26.7247L43.177 26.8342C43.1273 27.1177 43.06 27.3979 42.9755 27.6731C42.8178 28.2013 42.5761 28.7009 42.2596 29.1525C41.9486 29.5858 41.562 29.9597 41.1183 30.2562C40.655 30.5614 40.1504 30.7991 39.6198 30.9619C39.0594 31.1356 38.4829 31.2526 37.8991 31.3111C37.292 31.373 36.6815 31.3948 36.0716 31.3762C35.4479 31.3582 34.8256 31.3089 34.207 31.2282C33.5825 31.1483 32.9595 31.0423 32.338 30.9101C31.7165 30.778 31.0994 30.6261 30.4868 30.4545C30.18 30.3687 29.8761 30.2784 29.5753 30.1808C29.427 30.1334 29.2788 30.0831 29.1306 30.0328L28.9112 29.9559L28.8045 29.9174L28.7112 29.8819L27.7314 32.6929L27.8797 32.7373L28.0101 32.7757L28.268 32.8482C28.4399 32.8956 28.6089 32.94 28.7793 32.9829C29.1187 33.0687 29.4582 33.1515 29.7991 33.227C30.4789 33.3799 31.1641 33.5096 31.8548 33.6161C33.2478 33.8413 34.6575 33.9482 36.0686 33.9356C36.792 33.9261 37.5139 33.8683 38.2296 33.7625C38.9654 33.6497 39.6885 33.4664 40.3891 33.2151C41.1248 32.9561 41.8192 32.5923 42.4508 32.1351C43.0963 31.6625 43.6528 31.0795 44.0945 30.413C44.5252 29.7571 44.8475 29.0363 45.049 28.2782C45.1473 27.9138 45.223 27.5437 45.2758 27.1701L45.295 27.031L45.3099 26.8978C45.3202 26.8091 45.3291 26.7188 45.338 26.6301C45.3543 26.451 45.3691 26.272 45.378 26.0915C45.4221 25.3592 45.3939 24.6243 45.2936 23.8975C45.1903 23.1452 44.9818 22.4111 44.674 21.7168C44.3568 21.0072 43.9207 20.3568 43.3845 19.7935C43.1184 19.5167 42.8299 19.2624 42.5219 19.033C42.2186 18.806 41.8985 18.6023 41.5644 18.4235C40.9108 18.0776 40.2175 17.8123 39.4998 17.6334C39.1465 17.5436 38.7888 17.472 38.4282 17.4189C38.2474 17.3938 38.0665 17.3701 37.8828 17.3538C37.7909 17.3449 37.699 17.3375 37.6056 17.3316H37.4574H37.2958C37.0911 17.3241 36.8906 17.3917 36.7325 17.5218C36.5743 17.6518 36.4694 17.8353 36.4376 18.0373L36.4243 18.1202L34.6087 29.6289L37.7212 29.9337Z" fill="white"/>
<path d="M47.6602 32.5805L49.6463 32.7196L51.5197 14.1242L48.4027 13.9067L47.6602 32.5805Z" fill="white"/>
<path d="M63.9996 14.6231L60.8974 14.2503L60.6899 19.2065C60.6677 19.3352 60.6469 19.4639 60.6277 19.5911C60.6084 19.7184 60.5906 19.8382 60.5743 19.961L60.5506 20.1282L60.5269 20.288C60.3882 21.1422 60.1162 21.9694 59.7206 22.7394C59.5278 23.1144 59.2958 23.468 59.0284 23.7943C58.778 24.1047 58.4817 24.3751 58.1495 24.5962C57.8568 24.7963 57.5204 24.9236 57.1683 24.9675C57.0871 24.9763 57.0054 24.9793 56.9237 24.9764H56.863H56.8407H56.8141C56.7895 24.9733 56.7652 24.9684 56.7414 24.9616C56.6558 24.9393 56.5785 24.8925 56.5191 24.827C56.4267 24.7269 56.3529 24.6111 56.3012 24.4852C56.2283 24.3183 56.1713 24.1449 56.1308 23.9674C56.0851 23.7678 56.0509 23.5658 56.0285 23.3623C56.0048 23.1522 55.99 22.9347 55.9826 22.7158C55.9644 21.808 56.0229 20.9004 56.1575 20.0024C56.2849 19.0866 56.4658 18.1694 56.6836 17.2595C56.7385 17.0317 56.7963 16.8053 56.8556 16.5789C56.9149 16.3526 56.9771 16.1262 57.0423 15.9014C57.1075 15.6765 57.1757 15.4575 57.2454 15.2312L57.3536 14.8998L57.4084 14.737L57.4381 14.6556L57.4514 14.6172C57.4551 14.6055 57.4595 14.5942 57.4647 14.5831L54.4693 13.8774V13.9307V13.9795L54.4589 14.0757L54.4382 14.2636L54.3982 14.6364L54.3196 15.3761C54.2959 15.6217 54.2707 15.8673 54.2485 16.1159C54.2262 16.3644 54.2025 16.6085 54.1818 16.8556C54.0973 17.8394 54.0335 18.8262 53.9995 19.8145C53.9876 20.3131 53.9787 20.8132 53.9995 21.3177C54.0202 21.8222 54.0365 22.3311 54.0928 22.8474C54.1446 23.3838 54.2438 23.9145 54.3893 24.4334C54.4731 24.7191 54.5843 24.996 54.7213 25.2604C54.8774 25.5678 55.0867 25.8452 55.3393 26.0801C55.483 26.2115 55.6435 26.3234 55.8166 26.4129C55.992 26.5051 56.1796 26.5718 56.3739 26.6112C56.467 26.6321 56.5617 26.646 56.657 26.6526H56.7207H56.78C56.82 26.6526 56.86 26.6526 56.9 26.6526C57.0585 26.6541 57.217 26.6452 57.3743 26.626C57.6824 26.5853 57.9845 26.5078 58.274 26.3952C58.5501 26.2858 58.8147 26.1496 59.064 25.9883C59.5351 25.6802 59.9603 25.3072 60.3268 24.8802C60.3979 24.8003 60.4661 24.7175 60.5328 24.6331C60.5328 24.6687 60.5254 24.7042 60.521 24.7382C60.4261 25.5267 60.3342 26.3138 60.2364 27.1053L60.1993 27.4012L60.189 27.4752V27.5314C60.189 27.5669 60.1771 27.6024 60.1712 27.6379C60.1436 27.779 60.1059 27.9179 60.0585 28.0537C59.9642 28.3228 59.8298 28.5761 59.6598 28.8052C59.4903 29.0317 59.2874 29.2312 59.0581 29.397C58.8315 29.5586 58.5816 29.6849 58.317 29.7713C58.0583 29.8541 57.7883 29.896 57.5166 29.8956C57.3826 29.8952 57.2488 29.8843 57.1164 29.863L56.9964 29.8453L56.8748 29.8231L56.7548 29.798C56.7148 29.7891 56.6747 29.7817 56.6362 29.7713C56.3263 29.7027 56.0239 29.6035 55.7336 29.4754C55.5854 29.4133 55.4564 29.3408 55.3245 29.2668C55.1953 29.19 55.0701 29.1066 54.9495 29.0168L53.4199 31.7361C53.6482 31.8411 53.8779 31.9343 54.1106 32.0186C54.3433 32.103 54.579 32.1666 54.8132 32.2376C55.0473 32.3086 55.286 32.35 55.5216 32.3855C55.7573 32.421 55.993 32.461 56.2286 32.4817L56.4035 32.4965C56.4628 32.4965 56.5206 32.5054 56.5799 32.5069L56.7548 32.5157H56.9326C57.1965 32.5226 57.4606 32.5103 57.7226 32.4787C58.2442 32.4156 58.7536 32.276 59.2344 32.0645C60.1854 31.6482 60.9926 30.9618 61.5555 30.0909C61.9664 29.4505 62.2292 28.7268 62.3247 27.9723C62.3247 27.9102 62.3396 27.848 62.3455 27.7844L62.3529 27.6927V27.6187L62.3722 27.3228C62.427 26.5313 62.4893 25.7413 62.5471 24.9557C62.6049 24.1701 62.673 23.3741 62.7353 22.5885C62.8213 21.5707 62.9117 20.5533 63.0065 19.5364L63.9996 14.6231Z" fill="white"/>
<path d="M42.2221 38.484C40.4825 39.7197 38.497 40.5674 36.4002 40.9695C35.3747 41.1658 34.3317 41.2566 33.2877 41.2402C31.2199 41.2077 29.1789 40.7678 27.2819 39.9457C25.4453 39.1609 23.793 38.0019 22.4308 36.5429L19.4902 39.6099C20.4599 40.4389 21.5164 41.1611 22.6413 41.764C23.7457 42.3587 24.9078 42.84 26.1096 43.2005C28.4721 43.9128 30.9522 44.1526 33.4077 43.9062C34.6159 43.7832 35.808 43.5353 36.9649 43.1665C38.114 42.8033 39.2211 42.3188 40.2671 41.7211C41.2992 41.1305 42.2651 40.4317 43.1485 39.6365C44.0181 38.8506 44.8085 37.9815 45.5081 37.0415L44.6766 36.3491C43.9304 37.1393 43.1083 37.8543 42.2221 38.484Z" fill="#F5C614"/>
<path d="M24.5604 7.79113H23.2472V7.36653L23.2206 7.35765C23.082 7.51855 22.9082 7.64546 22.7126 7.72858C22.517 7.8117 22.3049 7.8488 22.0926 7.837C21.1589 7.837 20.5586 7.36653 20.5586 6.43594C20.5586 5.62372 21.187 5.02306 22.2127 5.02306H23.2502V4.87511C23.2502 4.50525 22.9923 4.32179 22.4839 4.32179C22.0907 4.30111 21.7043 4.42953 21.4019 4.6813L20.7646 3.79362C21.2162 3.38727 21.8352 3.18408 22.6218 3.18408C23.9157 3.18408 24.5634 3.70042 24.5634 4.74344L24.5604 7.79113ZM23.2472 5.98323H22.3787C22.0096 5.98323 21.8244 6.09419 21.8244 6.32498C21.8244 6.44482 21.9074 6.74959 22.4528 6.74959C22.8974 6.74959 23.2472 6.53655 23.2472 6.13117V5.98323Z" fill="#2D3188"/>
<path d="M26.8778 5.07932V7.80006H25.5557V3.22556H26.8496V3.74189L26.8778 3.75077C26.9844 3.57687 27.1338 3.43302 27.3117 3.33283C27.4896 3.23264 27.6902 3.17942 27.8945 3.17822C28.2398 3.16985 28.579 3.27028 28.8638 3.46523L28.4014 4.61773C28.1458 4.46142 27.8519 4.37849 27.5521 4.37806C27.146 4.37806 26.8778 4.63696 26.8778 5.07932Z" fill="#2D3188"/>
<path d="M32.9403 7.79109H31.6286V7.36649L31.6004 7.35761C31.4624 7.5194 31.2888 7.64722 31.0931 7.73113C30.8975 7.81503 30.6851 7.85277 30.4725 7.84139C29.5402 7.84139 28.9385 7.37092 28.9385 6.44034C28.9385 5.62811 29.5669 5.02745 30.5926 5.02745H31.6301V4.87951C31.6301 4.50964 31.3707 4.32618 30.8623 4.32618C30.4696 4.30559 30.0836 4.43402 29.7818 4.6857L29.143 3.79802C29.5966 3.39166 30.2161 3.18848 31.0016 3.18848C32.2956 3.18848 32.9418 3.70481 32.9418 4.74783L32.9403 7.79109ZM31.6286 5.98319H30.7541C30.3836 5.98319 30.1983 6.09415 30.1983 6.32494C30.1983 6.44478 30.2828 6.74955 30.8267 6.74955C31.2714 6.74955 31.6227 6.53651 31.6227 6.13113L31.6286 5.98319Z" fill="#2D3188"/>
<path d="M36.2573 7.84119C36.0701 7.84775 35.8838 7.81326 35.7115 7.74015C35.5391 7.66704 35.385 7.5571 35.2598 7.41806L35.242 7.43581V7.79532H33.9199V1.08447H35.242V3.59956L35.2598 3.60844C35.5316 3.35366 35.885 3.20322 36.2573 3.18383C37.3674 3.18383 37.9218 3.92356 37.9218 5.41634C37.9218 7.0329 37.3669 7.84119 36.2573 7.84119ZM35.3339 4.78757C35.2646 5.02124 35.2336 5.26454 35.242 5.50807C35.2343 5.75109 35.2653 5.99378 35.3339 6.22709C35.3667 6.34838 35.441 6.4544 35.5438 6.52681C35.6467 6.59922 35.7717 6.63345 35.8971 6.62359C36.2025 6.62359 36.4055 6.486 36.4796 6.23597C36.5494 5.99988 36.5804 5.75407 36.5715 5.50807C36.5828 5.26084 36.5487 5.01363 36.4707 4.77869C36.3966 4.53014 36.2025 4.39995 35.8971 4.39995C35.7737 4.39075 35.6507 4.42365 35.5484 4.49325C35.4461 4.56286 35.3705 4.66506 35.3339 4.78313V4.78757Z" fill="#2D3188"/>
<path d="M40.2147 2.5241H38.8926V1.37012H40.2147V2.5241ZM40.2147 7.79099H38.8926V3.22536H40.2147V7.79099Z" fill="#2D3188"/>
<path d="M44.8975 7.14572C44.433 7.59163 43.8137 7.84081 43.1693 7.84107C42.8906 7.8503 42.613 7.80359 42.3528 7.70371C42.0926 7.60384 41.8551 7.45283 41.6545 7.25964C41.2558 6.86315 41.0527 6.28172 41.0527 5.50648C41.0527 4.73124 41.2662 4.14981 41.6812 3.76219C42.1216 3.36957 42.6951 3.15877 43.2854 3.17251C43.8758 3.18624 44.4388 3.42349 44.8604 3.83616L44.0111 4.72384C43.7518 4.47529 43.4939 4.3451 43.2434 4.3451C42.6979 4.3451 42.4297 4.73272 42.4297 5.49908C42.4297 6.30095 42.6609 6.63383 43.2152 6.63383C43.4835 6.63383 43.7517 6.50512 44.0289 6.24621L44.8975 7.14572Z" fill="#2D3188"/>
</svg>
