<svg width="12" height="17" viewBox="0 0 12 17" fill="none" xmlns="http://www.w3.org/2000/svg">
<path d="M5.38338 16.1579C0.842813 9.57543 0 8.89987 0 6.48071C0 3.16699 2.68628 0.480713 6 0.480713C9.31372 0.480713 12 3.16699 12 6.48071C12 8.89987 11.1572 9.57543 6.61662 16.1579C6.31866 16.5883 5.68131 16.5883 5.38338 16.1579ZM6 8.98071C7.38072 8.98071 8.5 7.86143 8.5 6.48071C8.5 5.09999 7.38072 3.98071 6 3.98071C4.61928 3.98071 3.5 5.09999 3.5 6.48071C3.5 7.86143 4.61928 8.98071 6 8.98071Z" fill="#FF4732"/>
</svg>
