<svg width="32" height="33" viewBox="0 0 32 33" fill="none" xmlns="http://www.w3.org/2000/svg">
<path fill-rule="evenodd" clip-rule="evenodd" d="M0 16.6633C0 7.82677 7.16344 0.66333 16 0.66333C24.8366 0.66333 32 7.82677 32 16.6633C32 25.4999 24.8366 32.6633 16 32.6633C7.16344 32.6633 0 25.4999 0 16.6633Z" fill="#55ACEE"/>
<path fill-rule="evenodd" clip-rule="evenodd" d="M15.5208 13.6683L15.5544 14.2219L14.9948 14.1542C12.9579 13.8943 11.1784 13.013 9.66756 11.5329L8.92891 10.7984L8.73865 11.3408C8.33575 12.5497 8.59316 13.8265 9.43253 14.6852C9.8802 15.1597 9.77948 15.2275 9.00725 14.9451C8.73865 14.8547 8.50363 14.7869 8.48124 14.8208C8.4029 14.8999 8.6715 15.928 8.88414 16.3348C9.17513 16.8997 9.76828 17.4534 10.4174 17.781L10.9658 18.0409L10.3167 18.0522C9.68994 18.0522 9.66756 18.0635 9.73471 18.3008C9.95854 19.0352 10.8427 19.8148 11.8276 20.1538L12.5214 20.391L11.9171 20.7526C11.0218 21.2723 9.96973 21.5661 8.91772 21.5887C8.41409 21.6 8 21.6452 8 21.6791C8 21.7921 9.36538 22.4248 10.16 22.6734C12.5438 23.4078 15.3753 23.0914 17.5017 21.8373C19.0126 20.9447 20.5235 19.1708 21.2286 17.4534C21.6091 16.5382 21.9896 14.866 21.9896 14.0638C21.9896 13.544 22.0232 13.4762 22.6499 12.8548C23.0192 12.4932 23.3662 12.0978 23.4333 11.9848C23.5452 11.7701 23.534 11.7701 22.9633 11.9622C22.012 12.3012 21.8777 12.256 22.3477 11.7475C22.6947 11.386 23.1088 10.7306 23.1088 10.5386C23.1088 10.5047 22.9409 10.5612 22.7506 10.6629C22.5492 10.7758 22.1015 10.9453 21.7658 11.047L21.1614 11.2391L20.613 10.8662C20.3108 10.6629 19.8856 10.4369 19.6617 10.3691C19.0909 10.2109 18.218 10.2335 17.7032 10.4143C16.3042 10.9227 15.4201 12.2334 15.5208 13.6683Z" fill="white"/>
</svg>
