<svg width="44" height="45" viewBox="0 0 44 45" fill="none" xmlns="http://www.w3.org/2000/svg">
<rect width="44" height="44" rx="22" transform="matrix(-1 0 0 1 44 0.5)" fill="white"/>
<path d="M18.4589 12.9402C18.1651 13.2222 18 13.6046 18 14.0033C18 14.402 18.1651 14.7843 18.4589 15.0663L26.2169 22.5091L18.4589 29.9518C18.1734 30.2354 18.0154 30.6152 18.019 31.0095C18.0226 31.4037 18.1874 31.7808 18.478 32.0596C18.7686 32.3384 19.1617 32.4965 19.5726 32.4999C19.9835 32.5034 20.3794 32.3518 20.675 32.0779L29.5411 23.5721C29.8349 23.2902 30 22.9078 30 22.5091C30 22.1104 29.8349 21.728 29.5411 21.446L20.675 12.9402C20.3811 12.6584 19.9825 12.5 19.5669 12.5C19.1514 12.5 18.7528 12.6584 18.4589 12.9402Z" fill="black"/>
</svg>
