<svg width="20" height="17" viewBox="0 0 20 17" fill="none" xmlns="http://www.w3.org/2000/svg">
<path d="M18 0.66333H2C0.9 0.66333 0.00999999 1.56333 0.00999999 2.66333L0 14.6633C0 15.7633 0.9 16.6633 2 16.6633H18C19.1 16.6633 20 15.7633 20 14.6633V2.66333C20 1.56333 19.1 0.66333 18 0.66333ZM17.6 4.91333L10.53 9.33333C10.21 9.53333 9.79 9.53333 9.47 9.33333L2.4 4.91333C2.29973 4.85704 2.21192 4.78099 2.14189 4.68978C2.07186 4.59858 2.02106 4.49411 1.99258 4.3827C1.96409 4.27129 1.9585 4.15527 1.97616 4.04164C1.99381 3.92801 2.03434 3.81914 2.09528 3.72163C2.15623 3.62412 2.23632 3.53999 2.33073 3.47433C2.42513 3.40866 2.53187 3.36284 2.6445 3.33963C2.75712 3.31642 2.87328 3.3163 2.98595 3.33928C3.09863 3.36226 3.20546 3.40786 3.3 3.47333L10 7.66333L16.7 3.47333C16.7945 3.40786 16.9014 3.36226 17.014 3.33928C17.1267 3.3163 17.2429 3.31642 17.3555 3.33963C17.4681 3.36284 17.5749 3.40866 17.6693 3.47433C17.7637 3.53999 17.8438 3.62412 17.9047 3.72163C17.9657 3.81914 18.0062 3.92801 18.0238 4.04164C18.0415 4.15527 18.0359 4.27129 18.0074 4.3827C17.9789 4.49411 17.9281 4.59858 17.8581 4.68978C17.7881 4.78099 17.7003 4.85704 17.6 4.91333Z" fill="white"/>
</svg>
