<svg width="14" height="14" viewBox="0 0 14 14" fill="none" xmlns="http://www.w3.org/2000/svg">
<path d="M13.1894 4.99786L9.22222 4.4213L7.44878 0.825982C7.40034 0.727545 7.32065 0.647857 7.22222 0.59942C6.97534 0.477545 6.67534 0.579107 6.5519 0.825982L4.77846 4.4213L0.811272 4.99786C0.701897 5.01348 0.601897 5.06505 0.525335 5.14317C0.432775 5.23831 0.38177 5.3663 0.383528 5.49902C0.385286 5.63174 0.439662 5.75833 0.53471 5.85098L3.40502 8.64942L2.7269 12.601C2.711 12.6929 2.72117 12.7874 2.75626 12.8739C2.79135 12.9603 2.84996 13.0352 2.92544 13.09C3.00092 13.1448 3.09025 13.1774 3.18331 13.184C3.27636 13.1907 3.3694 13.1711 3.4519 13.1276L7.00034 11.2619L10.5488 13.1276C10.6457 13.1791 10.7582 13.1963 10.866 13.1775C11.1378 13.1307 11.3207 12.8729 11.2738 12.601L10.5957 8.64942L13.466 5.85098C13.5441 5.77442 13.5957 5.67442 13.6113 5.56505C13.6535 5.29161 13.4628 5.03848 13.1894 4.99786Z" fill="#F5C614"/>
</svg>
